Results
version=1
nRows=24
nColumns=24
inDegrees=yes
endheader
time	pelvis_tilt	pelvis_list	pelvis_rotation	pelvis_tx	pelvis_ty	pelvis_tz	hip_flexion_r	hip_adduction_r	hip_rotation_r	knee_angle_r	ankle_angle_r	subtalar_angle_r	mtp_angle_r	hip_flexion_l	hip_adduction_l	hip_rotation_l	knee_angle_l	ankle_angle_l	subtalar_angle_l	mtp_angle_l	lumbar_extension	lumbar_bending	lumbar_rotation
      1.41633333	     -2.06986038	     -4.73604580	    -11.55708851	      0.94673579	      0.98802465	      0.29619958	    -13.26491852	      8.47967334	     12.23192429	    -16.48355744	     17.84030199	      2.26245546	      9.59897854	     32.05437613	     -8.47371947	    -11.24998223	     -0.74252617	     10.55418185	     -1.75222025	      3.60478623	      1.80826389	      3.52986251	     10.84091829
      1.42050000	     -2.10958273	     -4.60801543	    -11.70760345	      0.95246542	      0.98736112	      0.29608935	    -13.43482543	      8.25179750	     12.30604055	    -16.68684810	     17.68574730	      2.26137447	      9.62431216	     31.98145092	     -8.38771635	    -10.82321334	     -1.21893740	     10.74742791	     -2.46570741	      3.61291888	      1.93483384	      3.38507628	     10.98724199
      1.42466667	     -2.15752231	     -4.48022267	    -11.83501700	      0.95827944	      0.98667224	      0.29593777	    -13.60253707	      8.02642814	     12.35412024	    -16.87731757	     17.53572380	      2.27266300	      9.67437624	     31.92649729	     -8.28912344	    -10.40415737	     -1.72411852	     10.98578349	     -3.07244633	      3.62147895	      2.09294889	      3.23849331	     11.11496982
      1.42883333	     -2.20048649	     -4.34227803	    -11.93133163	      0.96416391	      0.98598694	      0.29572649	    -13.77636663	      7.79217543	     12.36369694	    -17.05826685	     17.38028836	      2.29359559	      9.73021417	     31.85938197	     -8.15726147	     -9.99648207	     -2.21456100	     11.20950142	     -3.60131291	      3.63526315	      2.26097208	      3.07738978	     11.24404702
      1.43300000	     -2.25146853	     -4.20046524	    -12.04513646	      0.97008088	      0.98530468	      0.29552724	    -13.92774155	      7.55115389	     12.38192881	    -17.26882500	     17.20056234	      2.32262730	      9.80189218	     31.78384179	     -8.02676140	     -9.62384931	     -2.68528824	     11.39250645	     -4.14797114	      3.65245254	      2.43698469	      2.91554679	     11.36447827
      1.43716667	     -2.30227100	     -4.05692303	    -12.18254740	      0.97601780	      0.98463643	      0.29532631	    -14.05910336	      7.29994429	     12.40112903	    -17.51950659	     17.00696067	      2.37584938	      9.93811398	     31.67924309	     -7.89590236	     -9.23736130	     -3.10778132	     11.47532791	     -4.82914933	      3.67909698	      2.60376943	      2.77152356	     11.49908930
      1.44133333	     -2.35179373	     -3.90758901	    -12.28743932	      0.98202260	      0.98395925	      0.29507359	    -14.19358878	      7.04670665	     12.38326363	    -17.76120704	     16.80096791	      2.43666468	     10.10867705	     31.57908484	     -7.74127649	     -8.89759108	     -3.52432288	     11.56688018	     -5.36214229	      3.72083721	      2.78532897	      2.60758591	     11.61111170
      1.44550000	     -2.39618316	     -3.74366335	    -12.37702498	      0.98812524	      0.98329994	      0.29480794	    -14.33257456	      6.77849826	     12.33820169	    -17.99989708	     16.56425271	      2.47931595	     10.20498614	     31.47487392	     -7.56624429	     -8.65399056	     -3.94349214	     11.68419338	     -5.69768303	      3.75046803	      3.00022723	      2.41116476	     11.69360942
      1.44966667	     -2.45566261	     -3.58359293	    -12.48516178	      0.99420323	      0.98262269	      0.29452163	    -14.43135049	      6.51147644	     12.30088156	    -18.28574011	     16.33951271	      2.57945706	     10.42836922	     31.36752683	     -7.39401396	     -8.34199656	     -4.30872788	     11.61365772	     -6.32863270	      3.81610441	      3.17972359	      2.25664438	     11.84310889
      1.45383333	     -2.49760761	     -3.40156809	    -12.55274238	      1.00039889	      0.98196960	      0.29419880	    -14.55970081	      6.22511720	     12.22728126	    -18.54013243	     16.07744441	      2.65396986	     10.63177933	     31.25031019	     -7.18157504	     -8.13084042	     -4.66793453	     11.54794020	     -6.73377757	      3.88442973	      3.38602954	      2.03958634	     11.92694303
      1.45800000	     -2.54873087	     -3.22302395	    -12.64468388	      1.00660940	      0.98133200	      0.29389115	    -14.65656285	      5.93918834	     12.16509633	    -18.83739248	     15.76692626	      2.70329985	     10.72368160	     31.13294193	     -6.98905631	     -8.03078044	     -5.00346037	     11.51950841	     -6.95674799	      3.92327798	      3.61765845	      1.85426997	     11.96568305
      1.46216667	     -2.60901684	     -3.05082507	    -12.71187024	      1.01281239	      0.98067521	      0.29350417	    -14.72906929	      5.66285767	     12.06374268	    -19.15881440	     15.48245452	      2.87417316	     11.22319877	     31.01192893	     -6.77359708	     -7.73504381	     -5.27765733	     11.24350116	     -7.62804146	      4.12941582	      3.82769702	      1.67749406	     12.09727552
      1.46633333	     -2.64892642	     -2.85291126	    -12.74743342	      1.01907258	      0.98004775	      0.29311155	    -14.82370243	      5.37065416	     11.95506461	    -19.46085226	     15.07662726	      2.79348472	     13.80646836	     30.89108949	     -6.52705280	     -7.61082831	     -5.55882487	     10.93228282	     -8.03450838	      5.30339431	      4.02615857	      1.44854983	     12.01446202
      1.47050000	     -2.71357779	     -2.64193980	    -12.79351617	      1.02542330	      0.97942174	      0.29272124	    -14.87010846	      5.06148410	     11.80599335	    -19.80935238	     14.71811247	      2.90800371	     13.83530085	     30.80146725	     -6.28676974	     -7.64710883	     -5.84534929	     10.68371082	     -8.10058344	      5.31842961	      4.29822376	      1.21839870	     12.10922820
      1.47466667	     -2.77711452	     -2.41415836	    -12.84251319	      1.03171638	      0.97878835	      0.29228539	    -14.87410874	      4.73059898	     11.61588371	    -20.23214274	     14.44535921	      3.11284673	     13.98231416	     30.71213895	     -6.01996474	     -7.57663886	     -6.10476749	     10.24079322	     -8.50159223	      5.39800275	      4.53402772	      0.96383563	     12.27574849
      1.47883333	     -2.82735338	     -2.19720160	    -12.83407140	      1.03810255	      0.97820744	      0.29181015	    -14.92509623	      4.42880411	     11.43571857	    -20.58664696	     13.97874257	      3.14983366	     14.03937180	     30.62977226	     -5.74590869	     -7.60711042	     -6.37947857	      9.85947953	     -8.59790702	      5.43008307	      4.79002032	      0.72720036	     12.26381742
      1.48300000	     -2.89667352	     -1.95189339	    -12.83131204	      1.04446240	      0.97760152	      0.29127968	    -14.89996120	      4.09132806	     11.17226985	    -21.03450395	     13.62735268	      3.32602089	     14.34974447	     30.55656990	     -5.43366234	     -7.48639362	     -6.60001652	      9.22529231	     -9.12319471	      5.60517246	      5.04998431	      0.45494623	     12.29848046
      1.48716667	     -2.93207994	     -1.71677674	    -12.80303106	      1.05084613	      0.97709445	      0.29076095	    -14.93691734	      3.77893675	     10.99648101	    -21.42245179	     13.03095031	      3.25089429	     17.13409245	     30.46413836	     -5.12703494	     -7.46439860	     -6.83899552	      8.58907129	     -9.41304704	      7.19360091	      5.25955232	      0.17609953	     12.23640414
      1.49133333	     -3.01250115	     -1.43504760	    -12.75041770	      1.05727415	      0.97650765	      0.29018632	    -14.86880849	      3.42110905	     10.66485214	    -21.91578764	     12.61508327	      3.44023682	     17.20085113	     30.46588035	     -4.78219060	     -7.53620944	     -7.14800363	      8.04735549	     -9.49437163	      7.22203125	      5.56346098	     -0.16553814	     12.25989516
      1.49550000	     -3.06535778	     -1.15475240	    -12.68786982	      1.06367078	      0.97601624	      0.28960766	    -14.82497090	      3.06946701	     10.36913271	    -22.40607863	     12.09612571	      3.52527274	     17.29856642	     30.43868382	     -4.42884801	     -7.56903744	     -7.44793212	      7.45187060	     -9.61687361	      7.26393251	      5.81437805	     -0.51216843	     12.24155225
      1.49966667	     -3.11877628	     -0.87991978	    -12.59651369	      1.07008498	      0.97555799	      0.28894031	    -14.77049707	      2.72334395	     10.02376749	    -22.90052628	     11.45267305	      3.58978868	     19.51455521	     30.42847612	     -4.06185546	     -7.53056095	     -7.76870443	      6.75114113	     -9.95462500	      8.25410612	      6.07992281	     -0.81156474	     12.18143524
      1.50383333	     -3.14568658	     -0.58530307	    -12.44645521	      1.07652896	      0.97515694	      0.28824414	    -14.73867762	      2.37209962	      9.62275886	    -23.40692773	     10.84316976	      3.61490184	     19.52773341	     30.43727416	     -3.66316681	     -7.59524583	     -8.17321139	      6.20785111	     -9.88313157	      8.25378571	      6.32479023	     -1.19101287	     12.15400586
      1.50800000	     -3.19527554	     -0.25087869	    -12.29849616	      1.08292654	      0.97474252	      0.28750216	    -14.62350599	      1.97451838	      9.15744432	    -24.01277729	     10.31801194	      3.81300974	     19.68112668	     30.47892958	     -3.22078488	     -7.56357942	     -8.58079680	      5.57454706	    -10.12123540	      8.29272577	      6.57739124	     -1.61476831	     12.02958026
      1.51216667	     -3.20687497	      0.05404762	    -12.12107626	      1.08934074	      0.97444984	      0.28674899	    -14.57067500	      1.61601400	      8.72328236	    -24.56965026	      9.56835421	      3.82245693	     19.73405891	     30.51316696	     -2.80206311	     -7.58758345	     -9.07264987	      5.10124353	    -10.08968954	      8.30369057	      6.79138784	     -2.01104370	     11.99260492
